<svg width="21" height="20" viewBox="0 0 21 20" fill="none" xmlns="http://www.w3.org/2000/svg">
    <path d="M13.833 10.75v3.5c0 2.917-1.166 4.083-4.083 4.083h-3.5c-2.917 0-4.083-1.166-4.083-4.083v-3.5c0-2.917 1.166-4.083 4.083-4.083h3.5c2.917 0 4.083 1.166 4.083 4.083z" fill="#fff"/>
    <path d="M14.75 1.667h-3.5c-2.503 0-3.712.865-4.004 2.949-.077.551.384 1.009.94 1.009H9.75c3.5 0 5.125 1.625 5.125 5.125v1.563c0 .557.458 1.018 1.01.941 2.083-.292 2.948-1.5 2.948-4.004v-3.5c0-2.917-1.166-4.083-4.083-4.083z" fill="#fff"/>
</svg>
