<svg width="20" height="20" viewBox="0 0 20 20" fill="none" xmlns="http://www.w3.org/2000/svg">
<g id="vuesax/bold/arrow-circle-right">
<g id="arrow-circle-right">
<path id="Vector" d="M9.99999 1.66663C5.40832 1.66663 1.66666 5.40829 1.66666 9.99996C1.66666 14.5916 5.40832 18.3333 9.99999 18.3333C14.5917 18.3333 18.3333 14.5916 18.3333 9.99996C18.3333 5.40829 14.5917 1.66663 9.99999 1.66663ZM12.325 10.4416L9.38332 13.3833C9.25832 13.5083 9.09999 13.5666 8.94166 13.5666C8.78332 13.5666 8.62499 13.5083 8.49999 13.3833C8.25832 13.1416 8.25832 12.7416 8.49999 12.5L11 9.99996L8.49999 7.49996C8.25832 7.25829 8.25832 6.85829 8.49999 6.61663C8.74166 6.37496 9.14166 6.37496 9.38332 6.61663L12.325 9.55829C12.575 9.79996 12.575 10.2 12.325 10.4416Z" fill="url(#paint0_linear_339_154)"/>
</g>
</g>
<defs>
<linearGradient id="paint0_linear_339_154" x1="1.66666" y1="1.66663" x2="18.3333" y2="18.3333" gradientUnits="userSpaceOnUse">
<stop stop-color="#F97794"/>
<stop offset="1" stop-color="#623AA2"/>
</linearGradient>
</defs>
</svg>
