<svg width="18" height="18" viewBox="0 0 18 18" fill="none" xmlns="http://www.w3.org/2000/svg">
<path id="Vector" d="M9.00001 -7.86804e-07C4.07645 -1.21724e-06 1.21646e-06 4.0853 7.86804e-07 9.00001C3.56376e-07 13.9235 4.0853 18 9.00884 18C13.9235 18 18 13.9235 18 9.00001C18 4.0853 13.9147 -3.57147e-07 9.00001 -7.86804e-07ZM11.0912 4.49117C11.3647 4.77352 11.3647 5.21471 11.0912 5.47059L7.35002 8.99119L11.0912 12.503C11.3735 12.7676 11.3647 13.2177 11.0824 13.4824C10.8177 13.7382 10.3941 13.7118 10.1118 13.4471L6.32651 9.89118C5.80589 9.40589 5.81475 8.56762 6.32651 8.09119L10.1118 4.5265C10.3677 4.27947 10.8441 4.26176 11.0912 4.49117Z" fill="#666666"/>
</svg>
