<svg width="21" height="20" viewBox="0 0 21 20" fill="none" xmlns="http://www.w3.org/2000/svg">
    <g clip-path="url(#amyyuoz83a)">
        <path d="M19.818 6.72 15.29 2.191c-.373-.373-.752-.563-1.126-.563-.513 0-1.112.39-1.112 1.49V4.66a13.043 13.043 0 0 0-8.704 3.835A13.052 13.052 0 0 0 .5 17.785a.586.586 0 0 0 1.054.352c2.767-3.682 6.932-5.859 11.498-6.03v1.517c0 1.1.6 1.49 1.112 1.49.374 0 .753-.19 1.126-.563l4.528-4.527a2.32 2.32 0 0 0 .682-1.652 2.32 2.32 0 0 0-.682-1.653z" fill="#fff"/>
    </g>
    <defs>
        <clipPath id="amyyuoz83a">
            <path fill="#fff" transform="translate(.5)" d="M0 0h20v20H0z"/>
        </clipPath>
    </defs>
</svg>
