<svg width="28" height="24" viewBox="0 0 28 24" fill="none" xmlns="http://www.w3.org/2000/svg">
    <mask id="22ho0q990a" style="mask-type:alpha" maskUnits="userSpaceOnUse" x="0" y="0" width="28" height="24">
        <path fill="#D9D9D9" d="M0 0h28v24H0z"/>
    </mask>
    <g filter="url(#2ek34xgrkb)" fill="#DB762D" mask="url(#22ho0q990a)">
        <path d="M8.412 22.527c5.317 0 8.701-2.563 8.701-6.577v-.03c0-2.797-2.036-4.555-5.2-4.877v-.103c2.388-.483 4.365-2.168 4.365-4.819v-.03c0-3.456-3.076-5.756-7.895-5.756C3.68.335.575 2.884.297 6.839l-.015.205H5.16l.015-.147c.146-1.552 1.347-2.563 3.208-2.563 1.816 0 2.9.967 2.9 2.49v.03c0 1.494-1.26 2.475-3.325 2.475H5.702v3.648h2.285c2.344 0 3.662.937 3.662 2.636v.03c0 1.567-1.245 2.666-3.237 2.666-2.007 0-3.296-1.04-3.472-2.447l-.029-.16H-.216l.015.19c.307 3.999 3.618 6.635 8.613 6.635zM17.689 8h1.059V4.831c0-.767.552-1.265 1.362-1.265.2 0 .381.025.572.064v-.977a2.328 2.328 0 0 0-.464-.049c-.708 0-1.201.333-1.392.894h-.078v-.8h-1.06V8zm5.8.088c.742 0 1.323-.342 1.631-.923h.083V8h1.055V.617h-1.055v2.92h-.083c-.283-.571-.903-.933-1.63-.933-1.348 0-2.198 1.06-2.198 2.74v.01c0 1.665.864 2.734 2.197 2.734zm.303-.903c-.889 0-1.42-.694-1.42-1.831v-.01c0-1.138.531-1.831 1.42-1.831.879 0 1.426.698 1.426 1.83v.01c0 1.133-.542 1.832-1.426 1.832z"/>
    </g>
    <defs>
        <filter id="2ek34xgrkb" x="-1.216" y=".335" width="28.474" height="24.192" filterUnits="userSpaceOnUse" color-interpolation-filters="sRGB">
            <feFlood flood-opacity="0" result="BackgroundImageFix"/>
            <feColorMatrix in="SourceAlpha" values="0 0 0 0 0 0 0 0 0 0 0 0 0 0 0 0 0 0 127 0" result="hardAlpha"/>
            <feOffset dy="1"/>
            <feGaussianBlur stdDeviation=".5"/>
            <feComposite in2="hardAlpha" operator="out"/>
            <feColorMatrix values="0 0 0 0 0 0 0 0 0 0 0 0 0 0 0 0 0 0 0.6 0"/>
            <feBlend in2="BackgroundImageFix" result="effect1_dropShadow_22_431"/>
            <feBlend in="SourceGraphic" in2="effect1_dropShadow_22_431" result="shape"/>
        </filter>
    </defs>
</svg>
