<svg width="16" height="10" viewBox="0 0 16 10" fill="none" xmlns="http://www.w3.org/2000/svg">
<g id="Group">
<path id="Vector" d="M15.0656 3.69374C15.2219 3.66249 15.3313 3.52499 15.3313 3.36561V1.33124C15.3313 0.784363 14.8781 0.331238 14.3313 0.331238H11.6656V2.01561C11.6656 2.19999 11.5156 2.34999 11.3313 2.34999C11.1469 2.34999 10.9969 2.19999 10.9969 2.01561V0.331238H1.66565C1.11877 0.331238 0.665649 0.784363 0.665649 1.33124V3.36561C0.665649 3.52499 0.778149 3.65936 0.931274 3.69374C1.55627 3.82186 2.00002 4.36561 2.00002 4.99999C2.00002 5.63436 1.55627 6.17811 0.934399 6.30624C0.778149 6.33749 0.668774 6.47499 0.668774 6.63436V8.66874C0.668774 9.21561 1.1219 9.66874 1.66877 9.66874H11V7.99999C11 7.81561 11.15 7.66561 11.3344 7.66561C11.5188 7.66561 11.6688 7.81561 11.6688 7.99999V9.66561H14.3344C14.8813 9.66561 15.3344 9.21249 15.3344 8.66561V6.63124C15.3344 6.47186 15.2219 6.33749 15.0688 6.30311C14.4469 6.17499 14.0031 5.63124 14.0031 4.99686C14 4.36561 14.4438 3.82186 15.0656 3.69374ZM8.19377 8.13436C7.37502 8.13436 6.71252 7.46874 6.71252 6.65311C6.71252 5.83436 7.37815 5.17186 8.19377 5.17186C9.0094 5.17186 9.67502 5.83749 9.67502 6.65311C9.67502 7.47186 9.0094 8.13436 8.19377 8.13436ZM6.8219 4.43749C6.8219 4.30311 6.93127 4.19374 7.06565 4.19374C7.20002 4.19374 7.3094 4.30311 7.3094 4.43749C7.3094 4.57186 7.20002 4.68124 7.06565 4.68124C6.93127 4.68124 6.8219 4.57186 6.8219 4.43749ZM7.88752 4.43749C7.88752 4.30311 7.9969 4.19374 8.13127 4.19374C8.26565 4.19374 8.37502 4.30311 8.37502 4.43749C8.37502 4.57186 8.26565 4.68124 8.13127 4.68124C7.9969 4.68124 7.88752 4.57186 7.88752 4.43749ZM9.67502 4.73124C9.67502 4.86561 9.56565 4.97499 9.43127 4.97499C9.2969 4.97499 9.18752 4.86561 9.18752 4.73124V3.33436C9.18752 3.06561 8.96877 2.84374 8.6969 2.84374H8.37815V3.08749C8.37815 3.22186 8.26877 3.33124 8.1344 3.33124C8.00002 3.33124 7.89065 3.22186 7.89065 3.08749V2.84374H6.77502V3.08749C6.77502 3.22186 6.66565 3.33124 6.53127 3.33124C6.3969 3.33124 6.28752 3.22186 6.28752 3.08749V2.84374H5.1844V3.08749C5.1844 3.22186 5.07502 3.33124 4.94065 3.33124C4.80627 3.33124 4.6969 3.22186 4.6969 3.08749V2.84374H4.39065C4.1219 2.84374 3.90002 3.06249 3.90002 3.33436V7.15624C3.90002 7.42499 4.11877 7.64686 4.39065 7.64686H6.26565C6.40002 7.64686 6.5094 7.75624 6.5094 7.89061C6.5094 8.02499 6.40002 8.13436 6.26565 8.13436H4.39065C3.85002 8.13436 3.4094 7.69374 3.4094 7.15311V3.33436C3.4094 2.79374 3.85002 2.35311 4.39065 2.35311H4.6969V2.10936C4.6969 1.97499 4.80627 1.86561 4.94065 1.86561C5.07502 1.86561 5.1844 1.97499 5.1844 2.10936V2.35311H6.28752V2.10936C6.28752 1.97499 6.3969 1.86561 6.53127 1.86561C6.66565 1.86561 6.77502 1.97499 6.77502 2.10936V2.35311H7.89065V2.10936C7.89065 1.97499 8.00002 1.86561 8.1344 1.86561C8.26877 1.86561 8.37815 1.97499 8.37815 2.10936V2.35311H8.6969C9.23752 2.35311 9.67815 2.79374 9.67815 3.33436V4.73124H9.67502ZM6.00002 5.74686C5.86565 5.74686 5.75627 5.63749 5.75627 5.50311C5.75627 5.36874 5.86565 5.25936 6.00002 5.25936C6.1344 5.25936 6.24377 5.36874 6.24377 5.50311C6.2469 5.63749 6.13752 5.74686 6.00002 5.74686ZM6.2469 6.56874C6.2469 6.70311 6.13752 6.81249 6.00315 6.81249C5.86877 6.81249 5.7594 6.70311 5.7594 6.56874C5.7594 6.43436 5.86877 6.32499 6.00315 6.32499C6.13752 6.32499 6.2469 6.43124 6.2469 6.56874ZM6.00002 4.68124C5.86565 4.68124 5.75627 4.57186 5.75627 4.43749C5.75627 4.30311 5.86565 4.19374 6.00002 4.19374C6.1344 4.19374 6.24377 4.30311 6.24377 4.43749C6.2469 4.57186 6.13752 4.68124 6.00002 4.68124ZM4.9344 5.74686C4.80002 5.74686 4.69065 5.63749 4.69065 5.50311C4.69065 5.36874 4.80002 5.25936 4.9344 5.25936C5.06877 5.25936 5.17815 5.36874 5.17815 5.50311C5.18127 5.63749 5.0719 5.74686 4.9344 5.74686ZM5.18127 6.56874C5.18127 6.70311 5.0719 6.81249 4.93752 6.81249C4.80315 6.81249 4.69377 6.70311 4.69377 6.56874C4.69377 6.43436 4.80315 6.32499 4.93752 6.32499C5.0719 6.32186 5.18127 6.43124 5.18127 6.56874ZM4.9344 4.68124C4.80002 4.68124 4.69065 4.57186 4.69065 4.43749C4.69065 4.30311 4.80002 4.19374 4.9344 4.19374C5.06877 4.19374 5.17815 4.30311 5.17815 4.43749C5.18127 4.57186 5.0719 4.68124 4.9344 4.68124ZM11.6656 6.66874C11.6656 6.85311 11.5156 7.00311 11.3313 7.00311C11.1469 7.00311 10.9969 6.85311 10.9969 6.66874V5.68436C10.9969 5.49999 11.1469 5.34999 11.3313 5.34999C11.5156 5.34999 11.6656 5.49999 11.6656 5.68436V6.66874ZM11.6656 4.33436C11.6656 4.51874 11.5156 4.66874 11.3313 4.66874C11.1469 4.66874 10.9969 4.51874 10.9969 4.33436V3.33436C10.9969 3.14999 11.1469 2.99999 11.3313 2.99999C11.5156 2.99999 11.6656 3.14999 11.6656 3.33436V4.33436Z" fill="#4C11D3"/>
<path id="Vector_2" d="M8.19375 5.66248C7.64688 5.66248 7.20312 6.10623 7.20312 6.6531C7.20312 7.19998 7.64688 7.64373 8.19375 7.64373C8.74063 7.64373 9.18437 7.19998 9.18437 6.6531C9.18437 6.10623 8.74063 5.66248 8.19375 5.66248ZM8.55 6.89997H8.19375C8.05938 6.89997 7.95 6.7906 7.95 6.65623V6.1531C7.95 6.01873 8.05938 5.90935 8.19375 5.90935C8.32813 5.90935 8.4375 6.01873 8.4375 6.1531V6.40935H8.54688C8.68125 6.40935 8.79062 6.51873 8.79062 6.6531C8.79375 6.78747 8.68438 6.89997 8.55 6.89997Z" fill="#4C11D3"/>
</g>
</svg>
